<?xml version="1.0" encoding="UTF-8" standalone="no"?>
<!DOCTYPE svg PUBLIC "-//W3C//DTD SVG 1.1//EN" "http://www.w3.org/Graphics/SVG/1.1/DTD/svg11.dtd">
<svg width="100%" height="100%" viewBox="0 0 512 512" version="1.1" xmlns="http://www.w3.org/2000/svg" xmlns:xlink="http://www.w3.org/1999/xlink" xml:space="preserve" xmlns:serif="http://www.serif.com/" style="fill-rule:evenodd;clip-rule:evenodd;stroke-linejoin:round;stroke-miterlimit:2;">
    <rect x="0" y="0" width="512" height="512" style="fill:rgb(226,53,83);"/>
    <g transform="matrix(4.31539,0,0,4.31539,59,161.062)">
        <path d="M47.7,43.1C39.8,43.1 33.4,36.6 33.4,28.6C33.4,20.6 39.8,14.1 47.7,14.1C55.6,14.1 62,20.6 62,28.6C62,36.6 55.6,43.1 47.7,43.1M47.7,18.7C42.3,18.7 37.9,23.2 37.9,28.6C37.9,34.1 42.3,38.5 47.7,38.5C53.1,38.5 57.5,34.1 57.5,28.6C57.5,23.1 53.1,18.7 47.7,18.7" style="fill:white;fill-rule:nonzero;"/>
        <path d="M6.5,15.9L6.5,3.3C6.5,1.5 5,0 3.2,0C1.5,0 0,1.5 0,3.3L0,28.6C0,37.1 6.9,44 15.3,44C23.8,44 30.6,37.1 30.6,28.5C30.6,20 23.7,13 15.3,13C12,13.1 9,14.1 6.5,15.9ZM15.3,37.4C10.4,37.4 6.5,33.4 6.5,28.5C6.5,23.6 10.5,19.6 15.3,19.6C20.2,19.6 24.1,23.6 24.1,28.5C24.2,33.4 20.2,37.4 15.3,37.4" style="fill:white;fill-rule:nonzero;"/>
        <path d="M78,15.2C73.5,15.2 69.6,17.4 67.2,20.8L67.2,1.8C67.2,1.1 66.6,0.5 66,0.5C65.3,0.5 64.7,1.1 64.7,1.8L64.7,28.6C64.7,36 70.7,42 78,42C85.4,42 91.3,36 91.3,28.5C91.4,21.2 85.4,15.2 78,15.2M78,39.6C72,39.6 67.2,34.7 67.2,28.7C67.2,22.7 72.1,17.8 78,17.8C84,17.8 88.8,22.7 88.8,28.7C88.9,34.6 84,39.6 78,39.6" style="fill:white;fill-rule:nonzero;"/>
    </g>
</svg>
